# xmcd
#
# Track frame offsets: 
#        150
#        16700
#        34365
#        58007
#        71752
#        84440
#        107257
#        124437
#        144690
#        164777
#        181852
#        197925
#
# Disc length: 2848 seconds
#
# Revision: 4
# Processed by: cddbd v1.5.1PL2 Copyright (c) Steve Scherf et al.
# Submitted via: ExactAudioCopy v0.95a5
#
DISCID=ac0b1e0c
DTITLE=Redheaded Stepchild - Town And Country
DYEAR=1998
DGENRE=Country
TTITLE0=Any Old Way
TTITLE1=Little Maggie
TTITLE2=Graveyard Blues
TTITLE3=No Sleep on Mariner Street
TTITLE4=Whatcha Gonna Do?
TTITLE5=The War
TTITLE6=6 Year Blues
TTITLE7=Straight
TTITLE8=How Long, How Long Blues
TTITLE9=In the Pines
TTITLE10=Insomniac's Love Affair
TTITLE11=Down in the Alley
EXTD=
EXTT0=
EXTT1=
EXTT2=
EXTT3=
EXTT4=
EXTT5=
EXTT6=
EXTT7=
EXTT8=
EXTT9=
EXTT10=
EXTT11=
PLAYORDER=
